<?xml version="1.0" encoding="UTF-8" standalone="no"?>
<svg width="100px" height="107px" viewBox="0 0 100 107" version="1.1" xmlns="http://www.w3.org/2000/svg" xmlns:xlink="http://www.w3.org/1999/xlink" xmlns:sketch="http://www.bohemiancoding.com/sketch/ns">
    <!-- Generator: Sketch 3.4.4 (17249) - http://www.bohemiancoding.com/sketch -->
    <title>Jazzband Logo</title>
    <desc>Created with Sketch.</desc>
    <defs></defs>
    <g id="Page-1" stroke="none" stroke-width="1" fill="none" fill-rule="evenodd" sketch:type="MSPage">
        <g id="Jazzband-Logo" sketch:type="MSLayerGroup">
            <g sketch:type="MSShapeGroup">
                <path d="M0,0.506524725 L100,0.506524725 L100,57.6493819 L0,57.6493819 L0,0.506524725 Z M32.6923077,15.7151442 L30.5803571,34.5338255 C30.2598427,37.4642431 29.2868671,39.5017685 27.6614011,40.6464629 C26.1504045,41.7110287 24.0327517,42.2433036 21.3083791,42.2433036 C21.0222055,42.2433036 20.8791209,42.1059423 20.8791209,41.8312157 L21.2912088,38.4830014 C21.3484435,38.2082747 21.4915282,38.0709135 21.720467,38.0709135 C23.8038108,38.0709135 25.1259129,37.5958724 25.6868132,36.6457761 C25.9500929,36.2107922 26.1217945,35.6327303 26.2019231,34.9115728 L28.3653846,15.8181662 C28.3882785,15.6808029 28.4254805,15.5835053 28.4769918,15.5262706 C28.528503,15.4690359 28.6343856,15.4346956 28.7946429,15.4232486 L32.2458791,15.3030563 C32.5434997,15.3259502 32.6923077,15.4633115 32.6923077,15.7151442 Z M45.5872253,15.6979739 L47.5961538,41.5564904 C47.5961538,41.8197701 47.4473458,41.9628547 47.1497253,41.9857486 L43.5611264,42.1231113 C43.3207406,42.1231113 43.2005495,42.0143669 43.2005495,41.796875 L42.9429945,36.1306662 L39.0453297,36.2851992 L37.7575549,41.5736607 C37.7232141,41.7339179 37.677427,41.8426623 37.6201923,41.899897 C37.5629576,41.9571317 37.4599366,41.991472 37.3111264,42.002919 L33.7568681,42.1231113 C33.5279293,42.1231113 33.4134615,42.0143669 33.4134615,41.796875 L40.9512363,15.8181662 C41.0313649,15.5663334 41.1858963,15.4346956 41.4148352,15.4232486 L45.1923077,15.285886 C45.4326935,15.2973329 45.5643314,15.4346942 45.5872253,15.6979739 Z M54.0521978,15.4232486 L64.4917582,15.028331 C64.7664849,15.0512249 64.9038462,15.2057564 64.9038462,15.4919299 L56.3701923,37.5042926 L61.9505495,37.315419 C62.2252761,37.3383128 62.3626374,37.4813975 62.3626374,37.7446772 L61.9505495,41.3161058 C61.9047617,41.5793855 61.7559536,41.7224701 61.5041209,41.745364 L50.5322802,42.1231113 C50.2804475,42.1231113 50.154533,42.0143669 50.154533,41.796875 L58.7568681,19.6471497 L53.6057692,19.818853 C53.3195956,19.8074061 53.176511,19.6814916 53.176511,19.4411058 L53.6057692,15.8181662 C53.6401101,15.5777804 53.7889181,15.4461425 54.0521978,15.4232486 Z M68.9732143,15.4232486 L79.4127747,15.028331 C79.6875014,15.0512249 79.8248626,15.2057564 79.8248626,15.4919299 L71.2912088,37.5042926 L76.8715659,37.315419 C77.1462926,37.3383128 77.2836538,37.4813975 77.2836538,37.7446772 L76.8715659,41.3161058 C76.8257782,41.5793855 76.6769701,41.7224701 76.4251374,41.745364 L65.4532967,42.1231113 C65.2014639,42.1231113 65.0755495,42.0143669 65.0755495,41.796875 L73.6778846,19.6471497 L68.5267857,19.818853 C68.2406121,19.8074061 68.0975275,19.6814916 68.0975275,19.4411058 L68.5267857,15.8181662 C68.5611265,15.5777804 68.7099346,15.4461425 68.9732143,15.4232486 Z M42.342033,22.7721497 L39.9381868,32.627919 L42.7884615,32.524897 L42.342033,22.7721497 Z" id="Rectangle-1-Copy-7" fill="#BB381C"></path>
                <rect id="Rectangle-1-Copy-6" stroke="#BB381C" stroke-width="3" x="0" y="49.4505495" width="100" height="57.1428571"></rect>
                <path d="M31.7479396,69.5956387 C31.7479396,73.006828 30.4315608,75.3591396 27.7987637,76.6526442 C28.6916253,77.0303934 29.3898784,77.6113171 29.893544,78.3954327 C30.3972095,79.1795483 30.6490385,80.1840026 30.6490385,81.4088255 C30.6490385,82.6336485 30.4687518,83.7954959 30.1081731,84.8944025 C29.7475944,85.9933091 29.1895642,86.9891782 28.4340659,87.8820398 C26.8314938,89.7822325 24.2845871,90.7895484 20.7932692,90.9040179 L17.1016484,91.0242102 C16.8498156,91.0013163 16.7239011,90.8925719 16.7239011,90.6979739 L19.6771978,64.8566277 C19.7000917,64.6505828 19.7516022,64.5103598 19.8317308,64.4359547 C19.9118594,64.3615495 20.6272826,64.2756987 21.978022,64.1783997 C23.3287613,64.0811007 24.6165232,64.0324519 25.8413462,64.0324519 C27.901796,64.0324519 29.4013231,64.5275248 30.3399725,65.5176854 C31.2786219,66.5078461 31.7479396,67.8671502 31.7479396,69.5956387 L31.7479396,69.5956387 Z M23.385989,78.3525069 C22.9166643,78.3525069 22.6076015,78.3582303 22.4587912,78.3696772 L21.5315934,86.7316277 C23.1685064,86.7316277 24.4076194,86.2107996 25.2489698,85.1691277 C26.0903201,84.1274559 26.510989,82.7595666 26.510989,81.065419 C26.510989,80.2641329 26.2362665,79.6116669 25.6868132,79.1080014 C25.1373599,78.6043359 24.3704262,78.3525069 23.385989,78.3525069 L23.385989,78.3525069 Z M22.7506868,75.6395948 C26.0359596,75.6167009 27.6785714,73.8767916 27.6785714,70.4198146 C27.6785714,68.5997505 26.7399361,67.6897321 24.8626374,67.6897321 C24.336078,67.6897321 23.9239942,67.7069023 23.6263736,67.7412431 L22.7506868,75.6395948 Z M44.8660714,64.5990728 L46.875,90.4575893 C46.875,90.720869 46.726192,90.8639536 46.4285714,90.8868475 L42.8399725,91.0242102 C42.5995867,91.0242102 42.4793956,90.9154658 42.4793956,90.6979739 L42.2218407,85.0317651 L38.3241758,85.1862981 L37.0364011,90.4747596 C37.0020603,90.6350168 36.9562732,90.7437612 36.8990385,90.8009959 C36.8418037,90.8582306 36.7387828,90.8925709 36.5899725,90.9040179 L33.0357143,91.0242102 C32.8067754,91.0242102 32.6923077,90.9154658 32.6923077,90.6979739 L40.2300824,64.7192651 C40.310211,64.4674323 40.4647424,64.3357945 40.6936813,64.3243475 L44.4711538,64.1869849 C44.7115397,64.1984318 44.8431775,64.3357931 44.8660714,64.5990728 L44.8660714,64.5990728 Z M41.6208791,71.6732486 L39.217033,81.5290179 L42.0673077,81.4259959 L41.6208791,71.6732486 Z M67.0157967,64.5475618 L64.0625,90.4060783 C64.0167122,90.669358 63.8679042,90.8124427 63.6160714,90.8353365 L60.2163462,91.0242102 C60.0217481,91.0242102 59.9072804,90.9154658 59.8729396,90.6979739 L56.2671703,72.3600618 L54.9965659,90.4747596 C54.985119,90.7494863 54.836311,90.8925709 54.5501374,90.9040179 L51.0130495,91.0242102 C50.7612167,91.0242102 50.6353022,90.9154658 50.6353022,90.6979739 L53.6057692,64.7192651 C53.651557,64.4788793 53.800365,64.3472414 54.0521978,64.3243475 L57.5377747,64.1354739 C57.6980319,64.1354739 57.8039146,64.1669525 57.8554258,64.2299107 C57.9069371,64.2928689 57.9498625,64.3987515 57.9842033,64.5475618 L61.4697802,81.8724245 L62.6717033,64.7192651 C62.6831502,64.4674323 62.8376817,64.3357945 63.1353022,64.3243475 L66.5521978,64.1354739 C66.8612653,64.1354739 67.0157967,64.2728352 67.0157967,64.5475618 L67.0157967,64.5475618 Z M72.3557692,64.4273695 C72.4130039,64.3701348 72.9910659,64.2900074 74.0899725,64.1869849 C75.1888791,64.0839624 76.6969913,64.0324519 78.6143544,64.0324519 C80.5317175,64.0324519 82.0054894,64.5847587 83.0357143,65.6893887 C84.0659392,66.7940188 84.581044,68.3078544 84.581044,70.2309409 C84.581044,73.8596221 84.1746836,78.0376939 83.3619505,82.7652816 C82.9269667,85.2721623 82.2229902,87.1379861 81.25,88.3628091 C80.3571384,89.4846095 78.9606322,90.2229263 77.0604396,90.5777816 C76.2019188,90.7265919 75.1545391,90.8238894 73.9182692,90.8696772 L69.6428571,91.0242102 C69.3910244,91.0127632 69.2651099,90.9040189 69.2651099,90.6979739 L72.2355769,64.7192651 C72.2584708,64.5819018 72.2985345,64.4846042 72.3557692,64.4273695 L72.3557692,64.4273695 Z M76.1675824,68.0331387 L74.0728022,86.7316277 C75.7783968,86.5828175 76.960276,86.2508611 77.6184753,85.7357486 C78.2766745,85.2206362 78.7374071,84.2419372 79.0006868,82.7996223 C79.2639665,81.3573073 79.5243806,79.3884626 79.7819368,76.8930288 C80.039493,74.3975951 80.1682692,72.3543463 80.1682692,70.7632212 C80.1682692,69.8245718 79.9393338,69.1263187 79.481456,68.6684409 C79.0235783,68.2105632 78.4025909,67.9816277 77.6184753,67.9816277 C76.8343596,67.9816277 76.3507335,67.9987979 76.1675824,68.0331387 L76.1675824,68.0331387 Z" id="BAND-Copy-2" fill="#BB381C"></path>
            </g>
        </g>
    </g>
</svg>