<svg version="1.0" xmlns="http://www.w3.org/2000/svg" width="1141.333" height="1141.333" viewBox="0 0 856 856"><path d="M39.7 3.6c-.3.3-3 .5-6.1.5H28V856h800V4.2l-4-.4c-2.2-.2-4-.1-4 .2 0 .3-2.1.4-4.7.2-6.6-.4-12.6-.3-13 .2-.3.2-1.8 0-3.4-.4-1.6-.5-2.9-.6-2.9-.2 0 .4-2.1.6-4.7.4-6.6-.4-12.6-.3-13 .2-.3.2-1.8 0-3.4-.4-1.6-.5-2.9-.6-2.9-.2 0 .4-2.1.6-4.7.4-6.6-.4-12.6-.3-13 .2-.3.2-1.8 0-3.4-.4-1.6-.5-2.9-.6-2.9-.2 0 .4-2.1.6-4.7.4-6.6-.4-12.6-.3-13 .2-.3.2-1.8 0-3.4-.4-1.6-.5-2.9-.6-2.9-.2 0 .4-2.1.6-4.7.4-6.6-.4-12.6-.3-13 .2-.3.2-1.8 0-3.4-.4-1.6-.5-2.9-.6-2.9-.2 0 .4-2.1.6-4.7.4-6.6-.4-12.6-.3-13 .2-.3.2-1.8 0-3.4-.4-1.6-.5-2.9-.6-2.9-.2 0 .4-2.1.6-4.7.4-6.6-.4-12.6-.3-13 .2-.3.2-1.8 0-3.4-.4-1.6-.5-2.9-.6-2.9-.2 0 .4-2.1.6-4.7.4-6.6-.4-12.6-.3-13 .2-.3.2-1.8 0-3.4-.4-1.6-.5-2.9-.6-2.9-.2 0 .4-2.1.6-4.7.4-6.6-.4-12.6-.3-13 .2-.3.2-1.8 0-3.4-.4-1.6-.5-2.9-.6-2.9-.2 0 .4-2.1.6-4.7.4-6.6-.4-12.6-.3-13 .2-.3.2-1.8 0-3.4-.4-1.6-.5-2.9-.6-2.9-.2 0 .4-2.1.6-4.7.4-6.6-.4-12.6-.3-13 .2-.3.2-1.8 0-3.4-.4-1.6-.5-2.9-.6-2.9-.2 0 .4-2.1.6-4.7.4-6.6-.4-12.6-.3-13 .2-.3.2-1.8 0-3.4-.4-1.6-.5-2.9-.6-2.9-.2 0 .4-2.1.6-4.7.4-6.6-.4-12.6-.3-13 .2-.3.2-1.8 0-3.4-.4-1.6-.5-2.9-.6-2.9-.2 0 .4-2.1.6-4.7.4-6.6-.4-12.6-.3-13 .2-.3.2-1.8 0-3.4-.4-1.6-.5-2.9-.6-2.9-.2 0 .4-2.1.6-4.7.4-6.6-.4-12.6-.3-13 .2-.3.2-1.8 0-3.4-.4-1.6-.5-2.9-.6-2.9-.2 0 .4-2.1.6-4.7.4-6.6-.4-12.6-.3-13 .2-.3.2-1.8 0-3.4-.4-1.6-.5-2.9-.6-2.9-.2 0 .4-2.1.6-4.7.4-6.6-.4-12.6-.3-13 .2-.3.2-1.8 0-3.4-.4-1.6-.5-2.9-.6-2.9-.2 0 .4-2.1.6-4.7.4-6.6-.4-12.6-.3-13 .2-.3.2-1.8 0-3.4-.4-1.6-.5-2.9-.6-2.9-.2 0 .4-2.1.6-4.7.4-6.6-.4-12.6-.3-13 .2-.3.2-1.8 0-3.4-.4-1.6-.5-2.9-.6-2.9-.2 0 .4-2.1.6-4.7.4-6.6-.4-12.6-.3-13 .2-.3.2-1.8 0-3.4-.4-1.6-.5-2.9-.6-2.9-.2 0 .4-2.1.6-4.7.4-6.6-.4-12.6-.3-13 .2-.3.2-1.8 0-3.4-.4-1.6-.5-2.9-.6-2.9-.2 0 .4-2.1.6-4.7.4-6.6-.4-12.6-.3-13 .2-.3.2-1.8 0-3.4-.4-1.6-.5-2.9-.6-2.9-.2 0 .4-2.1.6-4.7.4-6.6-.4-12.6-.3-13 .2-.3.2-1.8 0-3.4-.4-1.6-.5-2.9-.6-2.9-.2 0 .4-2.1.6-4.7.4-6.6-.4-12.6-.3-13 .2-.3.2-1.8 0-3.4-.4-1.6-.5-2.9-.6-2.9-.2 0 .4-2.1.6-4.7.4-6.6-.4-12.6-.3-13 .2-.3.2-1.8 0-3.4-.4-1.6-.5-2.9-.6-2.9-.2 0 .4-2.1.6-4.7.4-6.6-.4-12.6-.3-13 .2-.3.2-1.8 0-3.4-.4-1.6-.5-2.9-.6-2.9-.2 0 .4-2.1.6-4.7.4-6.6-.4-12.6-.3-13 .2-.3.2-1.8 0-3.4-.4-1.6-.5-2.9-.6-2.9-.2 0 .4-2.1.6-4.7.4-6.6-.4-12.6-.3-13 .2-.3.2-1.8 0-3.4-.4-1.6-.5-2.9-.6-2.9-.2 0 .4-2.1.6-4.7.4-6.6-.4-12.6-.3-13 .2-.3.2-1.8 0-3.4-.4-1.6-.5-2.9-.6-2.9-.2 0 .4-2.1.6-4.7.4-6.6-.4-12.6-.3-13 .2-.3.2-1.8 0-3.4-.4-1.6-.5-2.9-.6-2.9-.2 0 .4-2.1.6-4.7.4-6.6-.4-12.6-.3-13 .2-.3.2-1.8 0-3.4-.4-1.6-.5-2.9-.6-2.9-.2 0 .4-2.1.6-4.7.4-6.6-.4-12.6-.3-13 .2-.3.2-1.8 0-3.4-.4-1.6-.5-2.9-.6-2.9-.2 0 .8-8.3.7-10.4-.1-.8-.3-1.6-.3-1.9-.1zm506.6 117.3c.4 0 .7.9.7 1.9 0 1.6-1 4.4-5.5 15.7-.4 1.1-.9 2.4-1 3-.2.8-4.2 11-7 18-.4 1.1-.9 2.4-1.1 3-.2.5-1.9 5-3.9 10-2 4.9-4.9 12.6-6.6 17-1.7 4.4-3.5 8.9-4 10-.5 1.1-3.2 8.1-6 15.5-2.9 7.4-6.5 16.9-8.1 21-1.6 4.1-3.7 9.5-4.5 12-.9 2.5-2 4.8-2.5 5.1-.6.3-.9.8-.7 1 .3.5-3.1 11.1-4.1 12.4-.3.5-1.4 3.2-2.4 6-2 5.7-2.9 7.9-4.4 11.5-.6 1.4-2.3 5.5-3.6 9.2l-2.5 6.8 17.7-.6c9.7-.3 19.9-.7 22.6-.8 6.1-.3 7.6 1.1 7.1 6.7-.1 2.3-.4 4.2-.4 4.2-.1 0-.4 1.8-.6 4-2 20.4-2 20.4-8.5 20.6-1.9 0-8.7.2-15 .4-6.3.2-18.2.6-26.3.9-8.1.3-15.2.8-15.7 1.1-.5.3-1.1.1-1.5-.5-.4-.6-1.1-.7-1.7-.4-1.7 1.1-26.6 1.5-27.2.5-.3-.5.5-3.8 1.8-7.2 2.7-7.1 12.8-33.3 14.1-36.4.5-1.1.9-2.2 1-2.5.1-.3.5-1.4 1-2.5.4-1.1 3.5-9 6.7-17.5s6.3-16.4 6.8-17.5c1.2-2.7 7.2-17.7 7.5-19 .1-.6.6-1.9 1-3 4.5-11.2 10.8-27.2 10.9-28 .2-.6 1-2.7 1.9-4.8.9-2.1 2.8-6.9 4.1-10.5 1.3-3.7 3.1-8.3 3.9-10.2 2.1-5.3 3-7.4 3.2-8 .1-.3.7-1.8 1.3-3.3.7-1.6 1.2-3.4 1.2-4.2 0-.8.5-1.7 1-2 .6-.4.8-1 .5-1.5-.5-.7-7.8-.6-33.8.4-10.9.4-10.8.5-9-13.8.7-5.5 1.4-11.9 1.6-14.1.3-4.9 2.1-7 6.1-7.1 11.1-.5 35.8-1.5 51.1-2 9.9-.3 18.1-.6 18.2-.8.2-.2 13.3 0 14.6.3zm119.6 1c.9 1.4-1.5 8.8-6 19-1 2.4-1.9 4.7-1.9 5.1 0 .4-.8 2.5-1.7 4.6-.9 2.2-1.7 4.1-1.8 4.4-.1.3-.5 1.4-1 2.5-.4 1.1-4.1 10.8-8.2 21.5s-7.8 20.4-8.3 21.5c-.5 1.1-3.7 9.2-7 18-3.4 8.8-6.5 16.9-7 18-.5 1.1-3.2 8.1-6 15.5s-5.5 14.4-6 15.5c-1.4 3-7.2 17.8-7.5 19-.1.5-.6 1.9-1 3s-1.4 3.5-2.1 5.4c-.8 1.8-1.4 3.7-1.4 4.2 0 .4 8.2.5 18.3.2 19.5-.6 22.9-.6 26.6-.4 2.4.1 2.4.1 1.7 8.6-.4 4.6-.9 9.4-1.2 10.7-.2 1.3-.6 4.8-.9 7.8-.5 6-2.1 7.9-6.4 8.1-1.4 0-7.1.2-12.6.4-11.6.4-41.9 1.4-61.7 2-12.6.4-13.8.3-13.8-1.3 0-1.7 3-10.3 5.5-15.9.8-1.7 1.5-3.7 1.5-4.5 0-.8.4-1.8.9-2.4 1-1.1 3.6-8.6 3.3-9.7-.1-.4.2-.7.8-.7.5 0 1-.7 1-1.5s.7-2.9 1.5-4.7c.8-1.8 4.3-10.7 7.8-19.8 3.5-9.1 6.7-17.4 7.2-18.5.4-1.1.9-2.5 1.1-3 .1-.6 2.3-6.2 4.9-12.5 2.5-6.3 4.8-12.2 5-13 .1-.8 1-3.1 1.9-5 1.8-4.1 25.6-65.6 25.6-66.3 0-.5-14.9-.2-33.7.7-4.4.2-8.6 0-9.3-.4-1.2-.8-.5-12.2 1.5-24.5.2-1.1.4-3.1.4-4.5.2-4 1.7-5.4 6.3-5.6 4.7-.3 24.1-1 50.3-2 9.4-.3 17.1-.7 17.2-.8.1-.1 3.6-.2 7.8-.1 5.3 0 7.9.4 8.4 1.4zm-377 1.9c.4.7.4 4.2-.1 7.8-.4 3.6-.7 6.9-.7 7.2.1.4 0 .9-.1 1.2-.1.3-.3 2.1-.5 4-.3 3.8-1.2 11.2-2 18.1-.3 2.4-.8 6.6-1 9.4-.3 2.7-.7 6.6-1 8.7-1.1 8.1-2.1 17.3-3.9 34.8-.5 4.7-1.6 13.7-2.1 18-.2 1.9-.7 5.7-1 8.5-.3 2.7-.7 6.8-1 9-.2 2.2-.7 6.7-1 10-.3 3.3-.8 7.1-1 8.5-.3 1.4-.7 4.7-1 7.5-.8 7.6-2.1 14.3-4.2 20.5-4.4 13.4-12.6 24.6-22.4 30.3-5.1 3-16.3 7.1-22.4 8.3-2.2.4-4.7.9-5.5 1-3.5.8-19.5 1.4-21.3.8-1.9-.6-1.9-3.3-.1-15.4.2-1.9.6-5.1.8-7 .6-6.1 1.7-10 2.9-10.1 13-.7 19.1-1.9 24.7-4.7 10.1-5 11.7-9.3 14.5-38.2.2-1.9.6-5.6.9-8.3.3-2.6.8-6.6 1.1-9 .3-2.3.8-6.5 1.1-9.2.3-2.8.7-6.6.9-8.5.2-1.9.4-3.5.5-3.5.1 0 .3-2.3.6-5 .8-8.9 1.1-11.9 1.8-16.5.6-4.2.9-6.4 2.1-18.5.4-4.7.9-9.3 2-17.5.2-1.9.7-6 1-9 .3-3 .7-7.3 1-9.5.2-2.2.7-6.3 1-9 1.3-10.6 1.7-13 2.5-14.1.5-.5 5.5-1.1 11.2-1.3 5.6-.1 10.4-.3 10.5-.5.8-.8 10.6.3 11.2 1.2zm103.1.2c.4.8 1.1 5.8 1.4 11 .4 5.2.8 11.3 1.1 13.5.4 4.2 1.5 18 2 27.5.2 3 .7 8.4 1 12 .4 3.6.8 9 1 12 .5 9.4 1.6 20.4 2.1 21.2.3.4 0 .8-.6.8s-.8.5-.3 1.2c.4.7.8 3.1.9 5.3.2 2.2.5 6.7.8 10 .8 9.2 1.7 20.4 2.1 27 .5 7 1.2 16.5 2 25 .3 3.3.8 9.1 1 13 .3 3.8.7 9.9 1 13.5 1.3 15.9 1.4 16.9.1 17.9-.6.5-2.1 1-3.1 1-1.1 0-8.2.2-15.7.5-10.2.4-13.9.2-14.5-.7-.4-.6-.8-3.2-.9-5.7-.1-2.5-.5-10.6-.9-18-.3-7.4-.7-15.6-.7-18.2l-.2-4.7-12.5.5c-20.3.8-18.3.3-19.8 5.4-.7 2.5-1.6 5.8-1.9 7.4-.3 1.6-.7 3.3-.9 3.6-.3.4-.7 2.5-1.1 4.6-.3 2.2-1 4.6-1.4 5.4-.4.8-.8 1.8-.8 2.3 0 .4-.3 2-.6 3.5-.4 1.5-.9 3.8-1.2 5.2-.3 1.4-.7 3.2-.9 4-.2.8-.4 1.8-.4 2.2-.2 2.1-5.7 3-19.1 3.4-11.2.3-14.9.1-15.3-.9-.2-.7.8-5.7 2.4-11.2 5.2-17.9 8.1-27.9 9.6-32.6.8-2.5 1.5-5.2 1.6-6 .2-.8.5-1.9.8-2.4.6-.9 1.6-4.5 2.4-8.5.2-.8 1.7-6.2 3.5-12 1.7-5.8 3.3-11.2 3.5-12 .4-1.5 2.5-8.9 9.2-31.5 1.9-6.6 4.8-16.5 6.3-22 1.6-5.5 4.5-15.6 6.5-22.5s3.9-13.4 4.2-14.5c.6-2.7.9-3.7 1.6-5.5.3-.8 1.5-4.9 2.7-9 4.7-16.8 6.3-21.1 7.8-21.9 1-.5 5.7-.9 10.6-1 4.9-.1 9.1-.2 9.2-.4.2-.1 3.3-.2 6.9-.2 4.8 0 6.9.4 7.5 1.5zm424.2 341.1c.2 2.2.1 3.9-.3 3.9s-.3 1.6.1 3.5.5 3.5.1 3.5c-.7 0-.5 9.9.2 10.7.3.2.1 1.8-.3 3.4-.5 1.6-.5 2.9 0 2.9.4 0 .4 1.6 0 3.5s-.4 3.5 0 3.5c.5 0 .5 1.3 0 3-.5 1.6-.6 3-.2 3 .4 0 .7 2.5.7 5.5s-.3 5.5-.6 5.5c-.4 0-.3 1.6.1 3.5s.5 3.5.1 3.5c-.7 0-.6 9.9.2 10.6.3.4.2 1.7-.3 3-.6 1.4-.6 2.6 0 2.9.5.3.6 1.5 0 2.9-.4 1.2-.5 2.9 0 3.6.5.7.4 2.3 0 3.6-.5 1.2-.6 2.4-.3 2.7.8.8.9 11.7.2 11.7-.4 0-.3 1.6.1 3.5s.5 3.5.1 3.5c-.5 0-.5 2-.1 4.5s.4 4.5-.1 4.5c-.4 0-.3 1.6.1 3.5s.5 3.5.1 3.5c-.7 0-.6 9.9.2 10.6.3.4.2 1.7-.3 3-.6 1.4-.6 2.6 0 2.9.5.3.6 1.5 0 2.9-.4 1.2-.5 2.9 0 3.6.5.7.4 2.3 0 3.6-.5 1.2-.6 2.4-.3 2.7.8.8.9 11.7.2 11.7-.4 0-.3 1.6.1 3.5s.5 3.5.1 3.5c-.5 0-.5 2-.1 4.5s.4 4.5-.1 4.5c-.4 0-.3 1.6.1 3.5s.5 3.5.1 3.5c-.7 0-.6 9.9.2 10.6.3.4.2 1.7-.3 3-.6 1.4-.6 2.6 0 2.9.5.3.6 1.5 0 2.9-.4 1.2-.5 2.9 0 3.6.5.7.4 2.3 0 3.6-.5 1.2-.6 2.4-.3 2.7.8.8.9 11.7.2 11.7-.4 0-.3 1.6.1 3.5s.5 3.5.1 3.5c-.5 0-.5 2-.1 4.5s.4 4.5-.1 4.5c-.4 0-.3 1.6.1 3.5s.5 3.5.1 3.5c-.7 0-.6 9.9.2 10.6.3.4.2 1.7-.3 3-.6 1.4-.6 2.6 0 2.9.5.3.6 1.5 0 2.9-.4 1.2-.5 2.9 0 3.6.5.7.4 2.3 0 3.6-.5 1.2-.6 2.4-.3 2.7.8.8.9 11.7.2 11.7-.4 0-.3 1.6.1 3.5s.5 3.5.1 3.5c-.7 0-.5 9.9.2 10.7.3.2.1 1.8-.3 3.4-.5 1.6-.5 2.9 0 2.9.4 0 .4 1.6 0 3.5s-.4 3.5 0 3.5c.5 0 .5 1.3 0 3-.5 1.6-.6 3-.2 3 .4 0 .7 2.5.7 5.5s-.3 5.5-.6 5.5c-.4 0-.3 1.6.1 3.5s.5 3.5.1 3.5c-.7 0-.6 9.9.2 10.6.3.4.2 1.7-.3 3-.6 1.4-.6 2.6 0 2.9.5.3.6 1.5.1 2.8-.5 1.3-.5 3-.1 3.8.4.7.4 2.3 0 3.5l-.8 2.1H40l.1-2.6c0-1.4-.2-4.1-.4-5.9-.2-1.8 0-3.5.5-3.8.5-.3.4-1.3-.1-2.2-.5-.9-.5-2.6 0-3.9.5-1.4.5-2.3-.1-2.3s-.6-.9-.1-2.3c.5-1.2.5-3.1.1-4.2s-.4-2.9 0-4 .4-2.9 0-3.9c-.3-1.1-.4-3.6 0-5.6.4-2 .3-4.6-.1-5.8-.5-1.2-.4-2.4.1-2.7.5-.3.5-1.8.1-3.3-.4-1.5-.5-3.8-.1-5.2.4-1.4.3-3.5-.1-4.7-.5-1.3-.4-2.5.2-2.8.5-.4.7-1 .4-1.6-.6-.8-.9-8.3-.5-10.4.3-1.4.1-7.4-.3-11.3-.2-1.8 0-3.5.5-3.8.5-.3.4-1.3-.1-2.2-.5-.9-.5-2.6 0-3.9.5-1.3.5-2.3.1-2.3-.6 0-.7-7.2-.2-9 .1-.3.1-2.3.1-4.5-.1-2.2-.1-4.6-.1-5.3v-2.5c0-.6 0-3.2-.1-5.7 0-2.5 0-5 .1-5.5.4-2.4.1-9.5-.4-10.4-.4-.5-.2-1.2.3-1.5.5-.4.6-1.8.2-3.4-.4-1.5-.5-3.8-.1-5.2.4-1.4.3-3.5-.1-4.7-.5-1.2-.4-2.5.1-2.8.5-.3.5-1.8 0-3.5s-.5-3.2 0-3.5c.5-.3.6-1.6.1-2.8-.5-1.2-.5-3.1-.1-4.2s.5-2.4.3-2.8c-.5-.8-.7-9.1-.3-11.2.3-1.4.1-7.5-.3-11.3-.2-1.8 0-3.5.5-3.8.5-.3.4-1.3-.1-2.2-.5-.9-.5-2.6 0-3.9.5-1.4.5-2.3-.1-2.3s-.6-.9-.1-2.3c.5-1.2.5-3.1.1-4.2s-.4-2.9 0-4 .4-2.9 0-3.9c-.3-1.1-.4-3.6 0-5.6.4-2 .3-4.6-.1-5.8-.5-1.2-.4-2.4.1-2.7.5-.3.5-1.8.1-3.3-.4-1.5-.5-3.8-.1-5.2.4-1.4.3-3.5-.1-4.7-.5-1.3-.4-2.5.2-2.8.5-.4.7-1 .4-1.6-.6-.8-.9-8.3-.5-10.4.3-1.4.1-7.4-.3-11.3-.2-1.8 0-3.5.5-3.8.5-.3.4-1.3-.1-2.2-.5-.9-.5-2.6 0-3.9.5-1.3.5-2.3.1-2.3-.6 0-.7-7.2-.2-9 .1-.3.1-2.3.1-4.5-.1-2.2-.1-4.6-.1-5.3v-2.5c0-.6 0-3.2-.1-5.7 0-2.5 0-5 .1-5.5.4-2.4.1-9.5-.4-10.4-.4-.5-.2-1.2.3-1.5.5-.4.6-1.8.2-3.4-.4-1.5-.5-3.8-.1-5.2.4-1.4.3-3.5-.1-4.7-.5-1.2-.4-2.5.1-2.8.5-.3.5-1.8 0-3.5s-.5-3.2 0-3.5c.5-.3.6-1.6.1-2.8-.5-1.2-.5-3.1-.1-4.2s.5-2.4.2-3c-.6-1-.4-7.4.3-8.5.3-.4 174.8-.7 387.9-.7h387.4l.4 3.8z"/><path d="M365.2 186.7c.2.7-3.1 15.4-5.3 23.3-2 7.6-11.9 48.9-11.9 49.9 0 .7 3.5.9 10.4.7 10.3-.4 13.1-1 12.2-2.5-.3-.4-.8-6.8-1.1-14.2-.6-14.2-1.4-30.8-2-42.4-.2-3.9-.4-8.9-.4-11.3-.1-2.3-.5-4.2-1.1-4.2-.5 0-.9.3-.8.7zM215.7 512.6c-.1.1-4.9.5-10.7.9-19.1 1.2-18.9 1.1-19.7 7.1-.2 2.2-.8 5.4-1.3 7.1-.5 2.1-.5 3.3.1 3.3s.7.5.3 1.1c-.4.6-.8 2.3-.9 3.8-.3 3.9-1.7 15.4-2 17.1-.2.8-.6 4.4-.9 8-.4 3.6-.8 7.5-1 8.5-.2 1.1-.7 5.1-1 9-.4 3.8-.9 8.1-1.1 9.5-.3 1.4-.7 5.2-1.1 8.5-.3 3.3-.7 7.3-.9 9-.2 1.6-.6 5.5-.9 8.5-.4 3-.8 7.1-1.1 9-.2 1.9-.7 5.7-1 8.5-.3 2.7-.7 6.6-1 8.5-.2 1.9-.7 6.2-1 9.5-.4 3.3-.8 7.1-1 8.5-.2 1.4-.7 5.9-1 10-.4 4.1-.9 7.8-1 8.1-.2.3-.7 4.1-1 8.4-.4 4.3-.8 8.6-1 9.4-.2.9-.6 4.5-1 8.1-.4 3.6-.9 7.3-1.1 8.3-.1.9-.6 5.3-.9 9.6-.5 7.3-.4 7.9 1.5 8.4 1.1.3 2 .2 2-.1 0-.4 5.5-.7 12.3-.8 11 0 25-.8 33.2-1.8 6-.7 19.1-4.9 25-7.9 7.6-4 12-7.2 16.5-12.1 1.9-2.2 4.1-4.5 4.8-5.2.6-.7 1.2-1.7 1.2-2.1 0-.5.8-1.8 1.8-2.9 2.9-3.2 7.8-14.4 9.8-22.4 1.3-5.4 1.9-11 1.9-20-.1-10.3-.7-17.5-1.5-17.5-.1 0-.3-.7-.5-1.6-.4-2.1-4.8-9-7.7-12.1-1.3-1.4-4.4-3.9-7-5.5l-4.8-3 5.6-3.7c16.6-11 24.4-26.6 25-49.8.2-7.2-.2-13.4-1-16.5-4.3-16-14-25.8-29.3-29.4-3.9-.9-34.7-2.1-35.6-1.3zm19.6 30c10.7 2.3 16.2 14.4 13.5 29.4-.5 2.5-1.1 5.8-1.4 7.5-.6 3.9-4.7 11.6-7.6 14.7-5.7 5.9-13.6 9.5-23.3 10.4l-6.5.6.6-4.7c.3-2.6.7-6.4 1-8.4.2-2 .7-6.3 1-9.6 1-10.4 1.2-12.9 1.8-17.5.9-7.2 2-17 2.5-21.7 0-.6 1.1-1.3 2.4-1.5 3-.5 12.1-.1 16 .8zm-8.2 86.6c4.1 1.7 12.5 8.8 10.5 8.8-.5 0-.3.7.4 1.5 1.2 1.4 1.9 5.8 2.1 12.5.1 4-2.3 15-4.3 19.5-5.3 12.2-15.8 20.3-28.5 21.9-5.2.7-7.3 0-6.8-2.2.1-.9.6-4.4.9-7.7.4-3.3.9-7.8 1.2-10 .2-2.2.6-6.3.9-9 .2-2.8.5-5 .5-5 .1 0 .3-1.8.5-4 .1-2.2.4-4 .5-4 .1 0 .3-1.8.4-4 .4-6.1 1.8-17.6 2.5-20.3.3-1.2 15.3.4 19.2 2zM631.7 512.6c-.1.1-4 .5-8.7.8-4.7.4-9.4.8-10.5 1.1-1.1.2-2.7.4-3.6.4-2.6.1-3.2 2.2-4.3 15.1-.4 3.6-.8 7.5-1 8.7-.4 2.1-1.2 8.9-2.2 18.3-.2 2.5-.6 6.1-.9 8-1.3 10-1.7 13.7-2 17.4-.2 2.3-.5 5.4-.8 7.1-.3 1.6-.8 6-1.2 9.6-.3 3.6-.8 7.6-1 9-.2 1.3-.6 5.3-.9 8.9-.4 3.6-.8 7.4-1 8.5-.3 1.8-1.7 13.1-2.1 18-.3 2.8-1.4 13.1-2.1 19-.9 6.9-1.1 9.1-1.9 16-.3 3.3-.8 7.6-1.1 9.6-.6 4.8-1.4 12.3-1.9 17.9-.2 2.5-.5 4.5-.5 4.5-.2 0-.7 3.7-1.3 10.8-.5 5.3-.3 5.9 1.6 6.6 1.2.5 2.5.7 2.9.4.4-.2 7.2-.6 15-.8 17.1-.5 30.8-1.3 36.3-2 6.3-.8 17.9-3.7 19-4.6.5-.5 1.5-.9 2.2-.9 2 0 11.5-6.1 15.1-9.8 7.2-7.4 14.4-22.1 17.7-36.2.6-2.8 1.8-8.8 2-10 .8-5.8 1.7-10.7 2-12 .2-.8.7-3.5 1-6 .3-2.5.8-5.6 1-7 .5-2.8 1.2-8 3.1-24.5.3-2.8.7-6.6 1-8.5 1.4-11.4 2.3-49.2 1.2-55.5-3-17.7-14.1-31.5-28.8-35.6-2.5-.7-5.2-1.4-6-1.7-1.4-.4-36.8-1-37.3-.6zm18.3 31.7c0 .5.4.5 1 .2 1.7-1 9.4 1.8 12.6 4.7 1.7 1.6 3.7 4.7 4.4 7.1 1.7 5.5 1.5 23.5-.5 45.2-.4 4.4-.9 9.8-1 12-.2 2.2-.4 4-.5 4-.1 0-.3 1.6-.5 3.5-.4 5.3-1.5 15.6-2.1 18.2-.2 1.3-.7 4.8-1 7.8-1.6 16.8-6.4 31.9-11.9 37.3-4.9 4.8-13.9 7.9-26.4 9.2l-3.3.3.6-7.1c.4-4 .9-8.6 1.1-10.2.2-1.7.7-5.5 1-8.5.3-3 .7-6.6.9-8 .4-2.2.9-6.9 2.2-20 .1-1.9.5-5.3.8-7.5.7-5.5 1.8-15.3 2.1-19.5.2-1.9.4-3.5.5-3.5.1 0 .3-1.4.4-3 .3-2.6 1.3-12 2.1-19.5.4-3.6 1.5-12.9 2-17 .3-1.9.7-6.2 1-9.5.2-3.3.5-6 .5-6 .1 0 .3-1.6.6-3.7.6-6 .8-6.3 4.4-6.8 5.2-.7 9-.6 9 .3zM377.8 513.6c-.2.1-6 .4-12.9.7-13.3.4-14.9.8-14.9 3.6 0 1-.3 2.1-.7 2.5-.4.3-.8 1.2-.9 1.9-.1.7-2.1 7.7-4.4 15.6-2.3 7.9-4.3 14.9-4.5 15.5-.1.6-.5 1.8-.8 2.6-.9 2.4-13.8 47.2-14.3 49.9-.3 1.3-.9 3.1-1.3 4-.5.9-1.4 4.1-2.2 7.1-1.7 6.9-1.5 6.2-2.2 8-.3.8-2.2 7.3-4.2 14.5-2 7.1-5.3 18.2-7.2 24.5-3.1 10.4-3.9 13.3-4.6 16.5-.2.5-.6 1.6-1 2.2-.5.7-.6 1.3-.3 1.3s-.3 2.4-1.3 5.2c-1 2.9-1.9 5.6-1.9 6.1-.1 1-3 11.2-4.8 17.2-.9 2.7-1.8 5.7-1.9 6.5-.2.8-.8 3-1.4 4.7-.9 3.1-.8 3.3 2.2 4.1 1.8.5 3.5.7 4 .5.4-.3 6.4-.6 13.3-.8 7-.2 13-.7 13.5-1.2.7-.7 3.1-9.3 4.5-16.3.3-1.4 1.4-5.9 2.4-10 1.1-4.1 2.2-8.6 2.4-10 .3-1.4.5-2.6.7-2.8.1-.1.3-.7.4-1.2.1-.6.4-1.2.5-1.5.1-.3.3-1.1.4-1.8.1-.8 2.3-1.3 6.6-1.4 3.6-.1 10.5-.4 15.3-.6 4.8-.2 9-.1 9.2.3.4.7 1 11.6 2 37.8.2 7.7 1 9.3 4.1 9.4 8 .2 28.9-1.4 30.1-2.4 1.4-1.1 1.3-4.2-.2-21.3-.3-2.8-.8-8.6-1.1-13-.3-4.4-.7-10-.9-12.5-.2-2.5-.6-8.6-1-13.5-1-12.4-1.3-16.8-2-25.5-.3-4.1-.8-10.4-1.1-14-.2-3.6-.7-8.8-.9-11.6-.3-2.8-.7-8.7-1-13-.3-4.3-.8-10.4-1.1-13.4-.3-3-.7-8.7-.9-12.5-.2-3.9-.7-9.7-.9-13-.3-3.3-.8-9.2-1.1-13-.3-3.9-.8-9.5-1-12.5-.3-3-.8-9.1-1.1-13.5-.3-4.4-.9-8.4-1.3-8.8-.8-.8-7.7-1.7-8.3-1.1zm-16.2 72.6c.9 21.1 1.2 29.7 1.9 43.8.7 14.8.8 18.7.6 20.6-.1.7-2.5 1-6.3 1-3.5-.1-8 .1-10 .5-2 .3-4.2.3-4.8-.1-.8-.5.3-6.2 3.5-19.1 2.5-10.1 4.8-19.3 5-20.4.4-2.2 4.3-18.4 4.8-20 .2-.6 1-3.7 1.7-7 .8-3.3 1.5-6.3 1.6-6.8.1-.4.2-1.5.3-2.4 0-.9.4-1.4.7-1.1.3.4.8 5.3 1 11zM476.7 513.6c-.1.1-4.1.4-8.8.6-4.7.3-9.1.8-9.7 1.1-.5.4-1.3 3.1-1.7 6-1.3 10.6-1.5 12.3-2 17.7-.4 3-.8 6.8-1 8.5-.2 1.6-.7 5.7-1.1 9-.3 3.3-.8 7.3-1 9-.2 1.6-.6 5-.8 7.5-.2 2.5-.8 7.9-1.4 12-.5 4.1-1 8.2-1 9-.1.8-.3 3.1-.6 5s-.7 5.7-1 8.5c-.3 2.7-.8 6.7-1.1 8.9-.3 2.1-.7 6.1-1 9-.2 2.8-.6 6.7-.9 8.6-.7 5-1.5 11.5-2.2 18.5-.4 3.3-.8 7.1-.9 8.5-.2 1.4-.4 2.5-.5 2.5-.1 0-.3 2.2-.4 5-.2 2.7-.6 6.8-1 9-.6 4-1.5 11.5-2.1 19-.2 2.2-.5 4.2-.6 4.5-.1.3-.1.7-.1 1 0 .3-.3 3.9-.9 8-.5 4.1-1.1 9.6-1.4 12.2-.5 3.9-.3 4.8 1.3 5.7 1.1.6 2.1.8 2.4.6.3-.3 6.9-.7 14.8-.9 15.4-.4 15.9-.6 16.1-6.1.1-1.7.3-4.6.4-6.5 1-13 2.1-27.3 3-42 .3-4.7.7-10.5.9-13 .2-2.5.7-8.8 1-14 .4-5.2.9-12.2 1.1-15.5.3-3.3.7-9.4 1-13.5.3-4.1.7-10.9 1-15 .3-4.1.7-9.9.9-12.8.3-5 1.4-8.2 1.8-5.1.2 2.1.4 3.1 1.1 6.4.8 3.3 1.2 5.2 2.7 13.5.6 3 1.3 6.6 1.5 8 .7 3 3.5 16.7 4 19.5.2 1.1.6 3.1.9 4.5.5 2.7 9.1 47 9.9 51 .3 1.4.8 3.6 1.1 5 .4 1.4.9 3.8 1.2 5.5 1.3 6.9 2.5 13.2 3 16 .3 1.6 1.1 5.5 1.7 8.5l1.3 5.5 14.9-.3c10.5-.2 15.4-.7 16.3-1.6 1.3-1.2 2.4-7.2 3.7-20.1.4-3.3.9-7.8 1.2-10 .3-2.2.6-5.4.8-7 .5-5.5 1.5-15 2-18.5.3-1.9.7-5.5 1-8 .2-2.5.6-6.3.9-8.5.3-2.2.8-6.5 1.1-9.5.3-3 .8-6.6 1-8 .2-1.4.6-5.6 1-9.3.3-3.7.8-7.6 1-8.5.2-1.5 1.1-8.2 2-17.2.3-2.3 1.2-10.8 2-17 .1-1.4.5-5.4.9-9 .3-3.6.8-7.5 1-8.5.2-1.1.7-5.2 1-9 .4-3.9.9-8.1 1.1-9.5.2-1.4.6-5.2 1-8.5.3-3.3 1-9.6 1.6-13.9.6-4.4.8-9 .4-10.3l-.6-2.4-12.2.7c-6.7.3-13.3.8-14.7.9-1.4.2-3.3.4-4.2.4-1.9.1-2.5 2.6-3.2 13.1-.3 3.6-.5 6.5-.6 6.5 0 0-.3 4-.5 9-.3 4.9-.7 11.2-.9 14-.2 2.7-.7 9.9-1.1 16-.4 6-.8 12.6-1 14.5-.2 1.9-.6 7.5-1 12.5-.9 13.8-1.4 21.3-2 29.6-.3 4.2-.8 10.5-1 14-.2 3.5-.4 6.8-.4 7.3-.2 2.1-1.2-.4-2.2-5.5-.6-3-1.2-6.3-1.5-7.4-.2-1.1-.6-3.1-.9-4.5-.2-1.4-.9-4.8-1.5-7.5-.5-2.8-1.2-6.4-1.5-8-.3-1.7-.8-3.9-1-5-1.4-6.6-7.5-36.6-8-39.5-.3-1.9-1.1-5.5-1.6-8-.6-2.5-1.2-5.4-1.4-6.5-.2-1.1-1.4-7.6-2.8-14.5s-2.8-13.6-3-15c-.7-3.7-1.7-8-2.9-12.8l-1.1-4.2-6.9.2c-3.8.2-7 .4-7.1.4z"/></svg>